<svg width="161" height="49" viewBox="0 0 161 49" fill="none" xmlns="http://www.w3.org/2000/svg">
<path d="M11.008 40.576C8.32001 40.576 6.19201 40.016 4.62401 38.896C3.08801 37.776 1.98401 36.208 1.31201 34.192C0.672005 32.144 0.352005 29.792 0.352005 27.136V14.08C0.352005 11.328 0.704005 8.944 1.408 6.928C2.112 4.912 3.31201 3.36 5.00801 2.272C6.73601 1.152 9.07201 0.591998 12.016 0.591998C14.896 0.591998 17.152 1.072 18.784 2.032C20.448 2.992 21.632 4.32 22.336 6.016C23.04 7.712 23.392 9.696 23.392 11.968V14.464H14.992V11.296C14.992 10.464 14.928 9.696 14.8 8.992C14.704 8.288 14.448 7.728 14.032 7.312C13.648 6.864 13.008 6.64 12.112 6.64C11.184 6.64 10.512 6.896 10.096 7.408C9.68001 7.888 9.40801 8.496 9.28001 9.232C9.18401 9.968 9.13601 10.736 9.13601 11.536V29.536C9.13601 30.4 9.21601 31.216 9.37601 31.984C9.56801 32.72 9.88801 33.328 10.336 33.808C10.816 34.256 11.488 34.48 12.352 34.48C13.248 34.48 13.936 34.24 14.416 33.76C14.896 33.28 15.232 32.656 15.424 31.888C15.616 31.12 15.712 30.304 15.712 29.44V24.88H12.208V19.84H23.44V40H17.776L17.296 36.784C16.784 37.872 16.032 38.784 15.04 39.52C14.048 40.224 12.704 40.576 11.008 40.576Z" fill="#141414"/>
<path d="M33.3295 40.48C31.9215 40.48 30.7375 40.144 29.7775 39.472C28.8175 38.8 28.0975 37.952 27.6175 36.928C27.1375 35.872 26.8975 34.8 26.8975 33.712C26.8975 31.984 27.2335 30.528 27.9055 29.344C28.6095 28.16 29.5215 27.168 30.6415 26.368C31.7615 25.568 32.9935 24.896 34.3375 24.352C35.6815 23.776 37.0095 23.264 38.3215 22.816V20.032C38.3215 19.552 38.2735 19.136 38.1775 18.784C38.0815 18.4 37.9215 18.112 37.6975 17.92C37.4735 17.696 37.1375 17.584 36.6895 17.584C36.2415 17.584 35.8895 17.68 35.6335 17.872C35.4095 18.064 35.2495 18.336 35.1535 18.688C35.0575 19.008 34.9935 19.376 34.9615 19.792L34.7695 21.808L27.4735 21.52C27.6335 18.192 28.5135 15.744 30.1135 14.176C31.7455 12.576 34.1775 11.776 37.4095 11.776C40.2255 11.776 42.3215 12.56 43.6975 14.128C45.1055 15.664 45.8095 17.664 45.8095 20.128V33.088C45.8095 34.24 45.8255 35.248 45.8575 36.112C45.9215 36.976 45.9855 37.728 46.0495 38.368C46.1455 39.008 46.2255 39.552 46.2895 40H39.2815C39.1855 39.264 39.0735 38.464 38.9455 37.6C38.8175 36.736 38.7215 36.224 38.6575 36.064C38.3375 37.216 37.7295 38.24 36.8335 39.136C35.9695 40.032 34.8015 40.48 33.3295 40.48ZM36.1135 35.2C36.4335 35.2 36.7215 35.136 36.9775 35.008C37.2655 34.88 37.5215 34.704 37.7455 34.48C37.9695 34.256 38.1615 34.032 38.3215 33.808V26.224C37.6815 26.608 37.0895 27.008 36.5455 27.424C36.0015 27.808 35.5375 28.24 35.1535 28.72C34.7695 29.2 34.4655 29.728 34.2415 30.304C34.0495 30.848 33.9535 31.472 33.9535 32.176C33.9535 33.104 34.1455 33.84 34.5295 34.384C34.9135 34.928 35.4415 35.2 36.1135 35.2Z" fill="#141414"/>
<path d="M64.2396 40.48C63.2156 40.48 62.1916 40.256 61.1676 39.808C60.1756 39.328 59.2156 38.688 58.2876 37.888V40H50.4636V1.12H58.2876V14.272C59.2476 13.44 60.2396 12.816 61.2636 12.4C62.3196 11.984 63.3436 11.776 64.3356 11.776C65.3916 11.776 66.2876 11.984 67.0236 12.4C67.7916 12.816 68.4156 13.408 68.8956 14.176C69.3756 14.912 69.7276 15.776 69.9516 16.768C70.1756 17.76 70.2876 18.816 70.2876 19.936V31.888C70.2876 33.616 70.0476 35.12 69.5676 36.4C69.1196 37.68 68.4476 38.688 67.5516 39.424C66.6556 40.128 65.5516 40.48 64.2396 40.48ZM60.4476 35.44C60.9596 35.44 61.3596 35.296 61.6476 35.008C61.9356 34.72 62.1436 34.352 62.2716 33.904C62.3996 33.424 62.4636 32.896 62.4636 32.32V19.36C62.4636 18.816 62.3996 18.336 62.2716 17.92C62.1436 17.472 61.9356 17.12 61.6476 16.864C61.3916 16.608 61.0236 16.48 60.5436 16.48C60.1276 16.48 59.7276 16.576 59.3436 16.768C58.9916 16.928 58.6396 17.136 58.2876 17.392V34.672C58.6396 34.896 58.9916 35.088 59.3436 35.248C59.7276 35.376 60.0956 35.44 60.4476 35.44Z" fill="#141414"/>
<path d="M72.2969 48.016V42.784H89.9609V48.016H72.2969Z" fill="#141414"/>
<path d="M92.8488 40V1.12H102.689C106.081 1.12 108.721 1.552 110.609 2.416C112.497 3.248 113.825 4.576 114.593 6.4C115.361 8.192 115.745 10.528 115.745 13.408V27.52C115.745 30.432 115.361 32.816 114.593 34.672C113.825 36.496 112.497 37.84 110.609 38.704C108.753 39.568 106.145 40 102.785 40H92.8488ZM101.441 34.048H102.785C104.097 34.048 105.041 33.856 105.617 33.472C106.193 33.088 106.545 32.512 106.673 31.744C106.833 30.976 106.913 30.016 106.913 28.864V11.92C106.913 10.768 106.817 9.84 106.625 9.136C106.465 8.432 106.097 7.92 105.521 7.6C104.945 7.28 104.017 7.12 102.737 7.12H101.441V34.048Z" fill="#141414"/>
<path d="M129.614 40.48C127.598 40.48 125.87 40.128 124.43 39.424C122.99 38.688 121.886 37.632 121.118 36.256C120.35 34.848 119.966 33.168 119.966 31.216V21.04C119.966 19.056 120.35 17.376 121.118 16C121.886 14.624 122.99 13.584 124.43 12.88C125.902 12.144 127.63 11.776 129.614 11.776C131.662 11.776 133.358 12.128 134.702 12.832C136.078 13.536 137.102 14.576 137.774 15.952C138.478 17.328 138.83 19.024 138.83 21.04V26.608H127.694V31.936C127.694 32.64 127.774 33.216 127.934 33.664C128.094 34.112 128.318 34.432 128.606 34.624C128.894 34.816 129.23 34.912 129.614 34.912C129.998 34.912 130.334 34.832 130.622 34.672C130.942 34.48 131.182 34.192 131.342 33.808C131.534 33.424 131.63 32.896 131.63 32.224V29.296H138.83V31.984C138.83 34.8 138.014 36.928 136.382 38.368C134.75 39.776 132.494 40.48 129.614 40.48ZM127.694 22.96H131.63V20.176C131.63 19.44 131.534 18.864 131.342 18.448C131.182 18.032 130.942 17.744 130.622 17.584C130.334 17.424 129.982 17.344 129.566 17.344C129.182 17.344 128.846 17.44 128.558 17.632C128.302 17.824 128.094 18.16 127.934 18.64C127.774 19.088 127.694 19.744 127.694 20.608V22.96Z" fill="#141414"/>
<path d="M146.689 40L141.121 12.256H148.609L150.913 29.968L153.025 12.256H160.513L154.801 40H146.689Z" fill="#141414"/>
</svg>
